<?xml version="1.0" encoding="UTF-8" standalone="no"?><svg xmlns="http://www.w3.org/2000/svg" xmlns:xlink="http://www.w3.org/1999/xlink" contentScriptType="application/ecmascript" contentStyleType="text/css" height="785px" preserveAspectRatio="none" style="width:2129px;height:785px;" version="1.1" viewBox="0 0 2129 785" width="2129px" zoomAndPan="magnify"><defs><filter height="300%" id="fglj2josfrciv" width="300%" x="-1" y="-1"><feGaussianBlur result="blurOut" stdDeviation="2.0"/><feColorMatrix in="blurOut" result="blurOut2" type="matrix" values="0 0 0 0 0 0 0 0 0 0 0 0 0 0 0 0 0 0 .4 0"/><feOffset dx="4.0" dy="4.0" in="blurOut2" result="blurOut3"/><feBlend in="SourceGraphic" in2="blurOut3" mode="normal"/></filter></defs><g><!--class Component--><rect fill="#FEFECE" filter="url(#fglj2josfrciv)" height="86.4141" id="Component" style="stroke: #A80036; stroke-width: 1.5;" width="204" x="494" y="239.5"/><ellipse cx="555.75" cy="255.5" fill="#A9DCDF" rx="11" ry="11" style="stroke: #A80036; stroke-width: 1.0;"/><path d="M555.8594,250.8438 L554.7031,255.9219 L557.0313,255.9219 L555.8594,250.8438 Z M554.375,248.6094 L557.3594,248.6094 L560.7188,261 L558.2656,261 L557.5,257.9375 L554.2188,257.9375 L553.4688,261 L551.0313,261 L554.375,248.6094 Z "/><text fill="#000000" font-family="sans-serif" font-size="12" font-style="italic" lengthAdjust="spacingAndGlyphs" textLength="72" x="576.25" y="259.6543">Component</text><line style="stroke: #A80036; stroke-width: 1.5;" x1="495" x2="697" y1="271.5" y2="271.5"/><line style="stroke: #A80036; stroke-width: 1.5;" x1="495" x2="697" y1="279.5" y2="279.5"/><ellipse cx="505" cy="291.4023" fill="#84BE84" rx="3" ry="3" style="stroke: #038048; stroke-width: 1.0;"/><text fill="#000000" font-family="sans-serif" font-size="11" lengthAdjust="spacingAndGlyphs" textLength="66" x="514" y="293.7104">start(): void</text><ellipse cx="505" cy="304.207" fill="#84BE84" rx="3" ry="3" style="stroke: #038048; stroke-width: 1.0;"/><text fill="#000000" font-family="sans-serif" font-size="11" lengthAdjust="spacingAndGlyphs" textLength="95" x="514" y="306.5151">printMenu(): void</text><ellipse cx="505" cy="317.0117" fill="#84BE84" rx="3" ry="3" style="stroke: #038048; stroke-width: 1.0;"/><text fill="#000000" font-family="sans-serif" font-size="11" lengthAdjust="spacingAndGlyphs" textLength="178" x="514" y="319.3198">handleKeyPress(char key): void</text><path d="M24.5,262.5 L24.5,302.7656 A0,0 0 0 0 24.5,302.7656 L368.5,302.7656 A0,0 0 0 0 368.5,302.7656 L368.5,286.5 L493.7621,282.5 L368.5,278.5 L368.5,272.5 L358.5,262.5 L24.5,262.5 A0,0 0 0 0 24.5,262.5 " fill="#FBFB77" filter="url(#fglj2josfrciv)" style="stroke: #A80036; stroke-width: 1.0;"/><path d="M358.5,262.5 L358.5,272.5 L368.5,272.5 L358.5,262.5 " fill="#FBFB77" style="stroke: #A80036; stroke-width: 1.0;"/><text fill="#000000" font-family="sans-serif" font-size="13" lengthAdjust="spacingAndGlyphs" textLength="319" x="30.5" y="279.5669">Inside every Component class is a start() method,</text><text fill="#000000" font-family="sans-serif" font-size="13" lengthAdjust="spacingAndGlyphs" textLength="140" x="30.5" y="294.6997">which contains a loop.</text><!--class MainMenuComponent--><rect fill="#FEFECE" filter="url(#fglj2josfrciv)" height="48" id="MainMenuComponent" style="stroke: #A80036; stroke-width: 1.5;" width="167" x="873" y="91.5"/><ellipse cx="888" cy="107.5" fill="#ADD1B2" rx="11" ry="11" style="stroke: #A80036; stroke-width: 1.0;"/><path d="M890.9688,113.1406 Q890.3906,113.4375 889.75,113.5781 Q889.1094,113.7344 888.4063,113.7344 Q885.9063,113.7344 884.5781,112.0938 Q883.2656,110.4375 883.2656,107.3125 Q883.2656,104.1875 884.5781,102.5313 Q885.9063,100.875 888.4063,100.875 Q889.1094,100.875 889.75,101.0313 Q890.4063,101.1875 890.9688,101.4844 L890.9688,104.2031 Q890.3438,103.625 889.75,103.3594 Q889.1563,103.0781 888.5313,103.0781 Q887.1875,103.0781 886.5,104.1563 Q885.8125,105.2188 885.8125,107.3125 Q885.8125,109.4063 886.5,110.4844 Q887.1875,111.5469 888.5313,111.5469 Q889.1563,111.5469 889.75,111.2813 Q890.3438,111 890.9688,110.4219 L890.9688,113.1406 Z "/><text fill="#000000" font-family="sans-serif" font-size="12" lengthAdjust="spacingAndGlyphs" textLength="135" x="902" y="111.6543">MainMenuComponent</text><line style="stroke: #A80036; stroke-width: 1.5;" x1="874" x2="1039" y1="123.5" y2="123.5"/><line style="stroke: #A80036; stroke-width: 1.5;" x1="874" x2="1039" y1="131.5" y2="131.5"/><!--class DuelComponent--><rect fill="#FEFECE" filter="url(#fglj2josfrciv)" height="99.2188" id="DuelComponent" style="stroke: #A80036; stroke-width: 1.5;" width="303" x="805" y="175"/><ellipse cx="902.25" cy="191" fill="#ADD1B2" rx="11" ry="11" style="stroke: #A80036; stroke-width: 1.0;"/><path d="M905.2188,196.6406 Q904.6406,196.9375 904,197.0781 Q903.3594,197.2344 902.6563,197.2344 Q900.1563,197.2344 898.8281,195.5938 Q897.5156,193.9375 897.5156,190.8125 Q897.5156,187.6875 898.8281,186.0313 Q900.1563,184.375 902.6563,184.375 Q903.3594,184.375 904,184.5313 Q904.6563,184.6875 905.2188,184.9844 L905.2188,187.7031 Q904.5938,187.125 904,186.8594 Q903.4063,186.5781 902.7813,186.5781 Q901.4375,186.5781 900.75,187.6563 Q900.0625,188.7188 900.0625,190.8125 Q900.0625,192.9063 900.75,193.9844 Q901.4375,195.0469 902.7813,195.0469 Q903.4063,195.0469 904,194.7813 Q904.5938,194.5 905.2188,193.9219 L905.2188,196.6406 Z "/><text fill="#000000" font-family="sans-serif" font-size="12" lengthAdjust="spacingAndGlyphs" textLength="100" x="922.75" y="195.1543">DuelComponent</text><line style="stroke: #A80036; stroke-width: 1.5;" x1="806" x2="1107" y1="207" y2="207"/><rect fill="none" height="6" style="stroke: #C82930; stroke-width: 1.0;" width="6" x="813" y="215.9023"/><text fill="#000000" font-family="sans-serif" font-size="11" lengthAdjust="spacingAndGlyphs" textLength="92" x="825" y="221.2104">enemies: vector</text><line style="stroke: #A80036; stroke-width: 1.5;" x1="806" x2="1107" y1="227.8047" y2="227.8047"/><rect fill="#F24D5C" height="6" style="stroke: #C82930; stroke-width: 1.0;" width="6" x="813" y="236.707"/><text fill="#000000" font-family="sans-serif" font-size="11" lengthAdjust="spacingAndGlyphs" textLength="130" x="825" y="242.0151">init(Player player): void</text><ellipse cx="816" cy="252.5117" fill="#84BE84" rx="3" ry="3" style="stroke: #038048; stroke-width: 1.0;"/><text fill="#000000" font-family="sans-serif" font-size="11" lengthAdjust="spacingAndGlyphs" textLength="229" x="825" y="254.8198">generateEnemy(int number = 1): Enemy</text><ellipse cx="816" cy="265.3164" fill="#84BE84" rx="3" ry="3" style="stroke: #038048; stroke-width: 1.0;"/><text fill="#000000" font-family="sans-serif" font-size="11" lengthAdjust="spacingAndGlyphs" textLength="277" x="825" y="267.6245">startNewDuel(Player player, Enemy enemy): void</text><path d="M1168,189 L1168,220.5 L1108.2672,224.5 L1168,228.5 L1168,259.5313 A0,0 0 0 0 1168,259.5313 L1627,259.5313 A0,0 0 0 0 1627,259.5313 L1627,199 L1617,189 L1168,189 A0,0 0 0 0 1168,189 " fill="#FBFB77" filter="url(#fglj2josfrciv)" style="stroke: #A80036; stroke-width: 1.0;"/><path d="M1617,189 L1617,199 L1627,199 L1617,189 " fill="#FBFB77" style="stroke: #A80036; stroke-width: 1.0;"/><text fill="#000000" font-family="sans-serif" font-size="13" lengthAdjust="spacingAndGlyphs" textLength="438" x="1174" y="206.0669">DuelComponent starts duel between player and generated enemies.</text><text fill="#000000" font-family="sans-serif" font-size="13" lengthAdjust="spacingAndGlyphs" textLength="259" x="1174" y="221.1997">update() will be called after every attack,</text><text fill="#000000" font-family="sans-serif" font-size="13" lengthAdjust="spacingAndGlyphs" textLength="391" x="1174" y="236.3325">it will refresh the health stats of the enemy and player object.</text><text fill="#000000" font-family="sans-serif" font-size="13" lengthAdjust="spacingAndGlyphs" textLength="352" x="1174" y="251.4653">When a duel is finished, it will return to GameController.</text><!--class PlayerCreationComponent--><rect fill="#FEFECE" filter="url(#fglj2josfrciv)" height="60.8047" id="PlayerCreationComponent" style="stroke: #A80036; stroke-width: 1.5;" width="195" x="859" y="309"/><ellipse cx="874" cy="325" fill="#ADD1B2" rx="11" ry="11" style="stroke: #A80036; stroke-width: 1.0;"/><path d="M876.9688,330.6406 Q876.3906,330.9375 875.75,331.0781 Q875.1094,331.2344 874.4063,331.2344 Q871.9063,331.2344 870.5781,329.5938 Q869.2656,327.9375 869.2656,324.8125 Q869.2656,321.6875 870.5781,320.0313 Q871.9063,318.375 874.4063,318.375 Q875.1094,318.375 875.75,318.5313 Q876.4063,318.6875 876.9688,318.9844 L876.9688,321.7031 Q876.3438,321.125 875.75,320.8594 Q875.1563,320.5781 874.5313,320.5781 Q873.1875,320.5781 872.5,321.6563 Q871.8125,322.7188 871.8125,324.8125 Q871.8125,326.9063 872.5,327.9844 Q873.1875,329.0469 874.5313,329.0469 Q875.1563,329.0469 875.75,328.7813 Q876.3438,328.5 876.9688,327.9219 L876.9688,330.6406 Z "/><text fill="#000000" font-family="sans-serif" font-size="12" lengthAdjust="spacingAndGlyphs" textLength="163" x="888" y="329.1543">PlayerCreationComponent</text><line style="stroke: #A80036; stroke-width: 1.5;" x1="860" x2="1053" y1="341" y2="341"/><line style="stroke: #A80036; stroke-width: 1.5;" x1="860" x2="1053" y1="349" y2="349"/><ellipse cx="870" cy="360.9023" fill="#84BE84" rx="3" ry="3" style="stroke: #038048; stroke-width: 1.0;"/><text fill="#000000" font-family="sans-serif" font-size="11" lengthAdjust="spacingAndGlyphs" textLength="146" x="879" y="363.2104">createNewPlayer(): Player</text><!--class WorldMapComponent--><rect fill="#FEFECE" filter="url(#fglj2josfrciv)" height="99.2188" id="WorldMapComponent" style="stroke: #A80036; stroke-width: 1.5;" width="207" x="853" y="405"/><ellipse cx="886.9" cy="421" fill="#ADD1B2" rx="11" ry="11" style="stroke: #A80036; stroke-width: 1.0;"/><path d="M889.8688,426.6406 Q889.2906,426.9375 888.65,427.0781 Q888.0094,427.2344 887.3063,427.2344 Q884.8063,427.2344 883.4781,425.5938 Q882.1656,423.9375 882.1656,420.8125 Q882.1656,417.6875 883.4781,416.0313 Q884.8063,414.375 887.3063,414.375 Q888.0094,414.375 888.65,414.5313 Q889.3063,414.6875 889.8688,414.9844 L889.8688,417.7031 Q889.2438,417.125 888.65,416.8594 Q888.0563,416.5781 887.4313,416.5781 Q886.0875,416.5781 885.4,417.6563 Q884.7125,418.7188 884.7125,420.8125 Q884.7125,422.9063 885.4,423.9844 Q886.0875,425.0469 887.4313,425.0469 Q888.0563,425.0469 888.65,424.7813 Q889.2438,424.5 889.8688,423.9219 L889.8688,426.6406 Z "/><text fill="#000000" font-family="sans-serif" font-size="12" lengthAdjust="spacingAndGlyphs" textLength="133" x="905.1" y="425.1543">WorldMapComponent</text><line style="stroke: #A80036; stroke-width: 1.5;" x1="854" x2="1059" y1="437" y2="437"/><rect fill="none" height="6" style="stroke: #C82930; stroke-width: 1.0;" width="6" x="861" y="445.9023"/><text fill="#000000" font-family="sans-serif" font-size="11" lengthAdjust="spacingAndGlyphs" textLength="76" x="873" y="451.2104">mapLevel: int</text><line style="stroke: #A80036; stroke-width: 1.5;" x1="854" x2="1059" y1="457.8047" y2="457.8047"/><ellipse cx="864" cy="469.707" fill="#84BE84" rx="3" ry="3" style="stroke: #038048; stroke-width: 1.0;"/><text fill="#000000" font-family="sans-serif" font-size="11" lengthAdjust="spacingAndGlyphs" textLength="125" x="873" y="472.0151">initMap(Player p): void</text><ellipse cx="864" cy="482.5117" fill="#84BE84" rx="3" ry="3" style="stroke: #038048; stroke-width: 1.0;"/><text fill="#000000" font-family="sans-serif" font-size="11" lengthAdjust="spacingAndGlyphs" textLength="181" x="873" y="484.8198">setMapLevel(int mapLevel): void</text><ellipse cx="864" cy="495.3164" fill="#84BE84" rx="3" ry="3" style="stroke: #038048; stroke-width: 1.0;"/><text fill="#000000" font-family="sans-serif" font-size="11" lengthAdjust="spacingAndGlyphs" textLength="100" x="873" y="497.6245">getMapLevel(): int</text><!--class RewardComponent--><rect fill="#FEFECE" filter="url(#fglj2josfrciv)" height="48" id="RewardComponent" style="stroke: #A80036; stroke-width: 1.5;" width="150" x="881.5" y="8.5"/><ellipse cx="896.5" cy="24.5" fill="#ADD1B2" rx="11" ry="11" style="stroke: #A80036; stroke-width: 1.0;"/><path d="M899.4688,30.1406 Q898.8906,30.4375 898.25,30.5781 Q897.6094,30.7344 896.9063,30.7344 Q894.4063,30.7344 893.0781,29.0938 Q891.7656,27.4375 891.7656,24.3125 Q891.7656,21.1875 893.0781,19.5313 Q894.4063,17.875 896.9063,17.875 Q897.6094,17.875 898.25,18.0313 Q898.9063,18.1875 899.4688,18.4844 L899.4688,21.2031 Q898.8438,20.625 898.25,20.3594 Q897.6563,20.0781 897.0313,20.0781 Q895.6875,20.0781 895,21.1563 Q894.3125,22.2188 894.3125,24.3125 Q894.3125,26.4063 895,27.4844 Q895.6875,28.5469 897.0313,28.5469 Q897.6563,28.5469 898.25,28.2813 Q898.8438,28 899.4688,27.4219 L899.4688,30.1406 Z "/><text fill="#000000" font-family="sans-serif" font-size="12" lengthAdjust="spacingAndGlyphs" textLength="118" x="910.5" y="28.6543">RewardComponent</text><line style="stroke: #A80036; stroke-width: 1.5;" x1="882.5" x2="1030.5" y1="40.5" y2="40.5"/><line style="stroke: #A80036; stroke-width: 1.5;" x1="882.5" x2="1030.5" y1="48.5" y2="48.5"/><path d="M1174,12.5 L1174,28.5 L1031.5594,32.5 L1174,36.5 L1174,52.7656 A0,0 0 0 0 1174,52.7656 L1621,52.7656 A0,0 0 0 0 1621,52.7656 L1621,22.5 L1611,12.5 L1174,12.5 A0,0 0 0 0 1174,12.5 " fill="#FBFB77" filter="url(#fglj2josfrciv)" style="stroke: #A80036; stroke-width: 1.0;"/><path d="M1611,12.5 L1611,22.5 L1621,22.5 L1611,12.5 " fill="#FBFB77" style="stroke: #A80036; stroke-width: 1.0;"/><text fill="#000000" font-family="sans-serif" font-size="13" lengthAdjust="spacingAndGlyphs" textLength="269" x="1180" y="29.5669">This component will be shown after a duel.</text><text fill="#000000" font-family="sans-serif" font-size="13" lengthAdjust="spacingAndGlyphs" textLength="426" x="1180" y="44.6997">Player wil be informed about gained experience points or level-ups.</text><!--class LifeForm--><rect fill="#FEFECE" filter="url(#fglj2josfrciv)" height="176.0469" id="LifeForm" style="stroke: #A80036; stroke-width: 1.5;" width="242" x="75.5" y="469.5"/><ellipse cx="165.75" cy="485.5" fill="#A9DCDF" rx="11" ry="11" style="stroke: #A80036; stroke-width: 1.0;"/><path d="M165.8594,480.8438 L164.7031,485.9219 L167.0313,485.9219 L165.8594,480.8438 Z M164.375,478.6094 L167.3594,478.6094 L170.7188,491 L168.2656,491 L167.5,487.9375 L164.2188,487.9375 L163.4688,491 L161.0313,491 L164.375,478.6094 Z "/><text fill="#000000" font-family="sans-serif" font-size="12" font-style="italic" lengthAdjust="spacingAndGlyphs" textLength="53" x="186.25" y="489.6543">LifeForm</text><line style="stroke: #A80036; stroke-width: 1.5;" x1="76.5" x2="316.5" y1="501.5" y2="501.5"/><rect fill="none" height="6" style="stroke: #C82930; stroke-width: 1.0;" width="6" x="83.5" y="510.4023"/><text fill="#000000" font-family="sans-serif" font-size="11" lengthAdjust="spacingAndGlyphs" textLength="92" x="95.5" y="515.7104">healthPoints: int</text><rect fill="none" height="6" style="stroke: #C82930; stroke-width: 1.0;" width="6" x="83.5" y="523.207"/><text fill="#000000" font-family="sans-serif" font-size="11" lengthAdjust="spacingAndGlyphs" textLength="91" x="95.5" y="528.5151">attackPoints: int</text><rect fill="none" height="6" style="stroke: #C82930; stroke-width: 1.0;" width="6" x="83.5" y="536.0117"/><text fill="#000000" font-family="sans-serif" font-size="11" lengthAdjust="spacingAndGlyphs" textLength="48" x="95.5" y="541.3198">level: int</text><line style="stroke: #A80036; stroke-width: 1.5;" x1="76.5" x2="316.5" y1="547.9141" y2="547.9141"/><ellipse cx="86.5" cy="559.8164" fill="#84BE84" rx="3" ry="3" style="stroke: #038048; stroke-width: 1.0;"/><text fill="#000000" font-family="sans-serif" font-size="11" lengthAdjust="spacingAndGlyphs" textLength="143" x="95.5" y="562.1245">takeDamage(int damage)</text><ellipse cx="86.5" cy="572.6211" fill="#84BE84" rx="3" ry="3" style="stroke: #038048; stroke-width: 1.0;"/><text fill="#000000" font-family="sans-serif" font-size="11" lengthAdjust="spacingAndGlyphs" textLength="119" x="95.5" y="574.9292">getHealthPoints(): int</text><ellipse cx="86.5" cy="585.4258" fill="#84BE84" rx="3" ry="3" style="stroke: #038048; stroke-width: 1.0;"/><text fill="#000000" font-family="sans-serif" font-size="11" lengthAdjust="spacingAndGlyphs" textLength="216" x="95.5" y="587.7339">setHealthPoints(int healthPoints): void</text><ellipse cx="86.5" cy="598.2305" fill="#84BE84" rx="3" ry="3" style="stroke: #038048; stroke-width: 1.0;"/><text fill="#000000" font-family="sans-serif" font-size="11" lengthAdjust="spacingAndGlyphs" textLength="117" x="95.5" y="600.5386">getAttackPoints(): int</text><ellipse cx="86.5" cy="611.0352" fill="#84BE84" rx="3" ry="3" style="stroke: #038048; stroke-width: 1.0;"/><text fill="#000000" font-family="sans-serif" font-size="11" lengthAdjust="spacingAndGlyphs" textLength="213" x="95.5" y="613.3433">setAttackPoints(int attackPoints): void</text><ellipse cx="86.5" cy="623.8398" fill="#84BE84" rx="3" ry="3" style="stroke: #038048; stroke-width: 1.0;"/><text fill="#000000" font-family="sans-serif" font-size="11" lengthAdjust="spacingAndGlyphs" textLength="130" x="95.5" y="626.1479">setLevel(int level): void</text><ellipse cx="86.5" cy="636.6445" fill="#84BE84" rx="3" ry="3" style="stroke: #038048; stroke-width: 1.0;"/><text fill="#000000" font-family="sans-serif" font-size="11" lengthAdjust="spacingAndGlyphs" textLength="77" x="95.5" y="638.9526">getLevel(): int</text><!--class Player--><rect fill="#FEFECE" filter="url(#fglj2josfrciv)" height="163.2422" id="Player" style="stroke: #A80036; stroke-width: 1.5;" width="298" x="447" y="611"/><ellipse cx="572.75" cy="627" fill="#ADD1B2" rx="11" ry="11" style="stroke: #A80036; stroke-width: 1.0;"/><path d="M575.7188,632.6406 Q575.1406,632.9375 574.5,633.0781 Q573.8594,633.2344 573.1563,633.2344 Q570.6563,633.2344 569.3281,631.5938 Q568.0156,629.9375 568.0156,626.8125 Q568.0156,623.6875 569.3281,622.0313 Q570.6563,620.375 573.1563,620.375 Q573.8594,620.375 574.5,620.5313 Q575.1563,620.6875 575.7188,620.9844 L575.7188,623.7031 Q575.0938,623.125 574.5,622.8594 Q573.9063,622.5781 573.2813,622.5781 Q571.9375,622.5781 571.25,623.6563 Q570.5625,624.7188 570.5625,626.8125 Q570.5625,628.9063 571.25,629.9844 Q571.9375,631.0469 573.2813,631.0469 Q573.9063,631.0469 574.5,630.7813 Q575.0938,630.5 575.7188,629.9219 L575.7188,632.6406 Z "/><text fill="#000000" font-family="sans-serif" font-size="12" lengthAdjust="spacingAndGlyphs" textLength="38" x="593.25" y="631.1543">Player</text><line style="stroke: #A80036; stroke-width: 1.5;" x1="448" x2="744" y1="643" y2="643"/><rect fill="none" height="6" style="stroke: #C82930; stroke-width: 1.0;" width="6" x="455" y="651.9023"/><text fill="#000000" font-family="sans-serif" font-size="11" lengthAdjust="spacingAndGlyphs" textLength="73" x="467" y="657.2104">name: string</text><rect fill="none" height="6" style="stroke: #C82930; stroke-width: 1.0;" width="6" x="455" y="664.707"/><text fill="#000000" font-family="sans-serif" font-size="11" lengthAdjust="spacingAndGlyphs" textLength="119" x="467" y="670.0151">experiencePoints: int</text><line style="stroke: #A80036; stroke-width: 1.5;" x1="448" x2="744" y1="676.6094" y2="676.6094"/><rect fill="#F24D5C" height="6" style="stroke: #C82930; stroke-width: 1.0;" width="6" x="455" y="685.5117"/><text fill="#000000" font-family="sans-serif" font-size="11" lengthAdjust="spacingAndGlyphs" textLength="49" x="467" y="690.8198">levelUp()</text><ellipse cx="458" cy="701.3164" fill="#84BE84" rx="3" ry="3" style="stroke: #038048; stroke-width: 1.0;"/><text fill="#000000" font-family="sans-serif" font-size="11" lengthAdjust="spacingAndGlyphs" textLength="100" x="467" y="703.6245">getName(): string</text><ellipse cx="458" cy="714.1211" fill="#84BE84" rx="3" ry="3" style="stroke: #038048; stroke-width: 1.0;"/><text fill="#000000" font-family="sans-serif" font-size="11" lengthAdjust="spacingAndGlyphs" textLength="159" x="467" y="716.4292">setName(string name): void</text><ellipse cx="458" cy="726.9258" fill="#84BE84" rx="3" ry="3" style="stroke: #038048; stroke-width: 1.0;"/><text fill="#000000" font-family="sans-serif" font-size="11" lengthAdjust="spacingAndGlyphs" textLength="166" x="467" y="729.2339">resetExperiencePoints(): void</text><ellipse cx="458" cy="739.7305" fill="#84BE84" rx="3" ry="3" style="stroke: #038048; stroke-width: 1.0;"/><text fill="#000000" font-family="sans-serif" font-size="11" lengthAdjust="spacingAndGlyphs" textLength="272" x="467" y="742.0386">consumeExperiencePoints(int experiencePoints)</text><ellipse cx="458" cy="752.5352" fill="#84BE84" rx="3" ry="3" style="stroke: #038048; stroke-width: 1.0;"/><text fill="#000000" font-family="sans-serif" font-size="11" lengthAdjust="spacingAndGlyphs" textLength="145" x="467" y="754.8433">getExperiencePoints(): int</text><ellipse cx="458" cy="765.3398" fill="#84BE84" rx="3" ry="3" style="stroke: #038048; stroke-width: 1.0;"/><text fill="#000000" font-family="sans-serif" font-size="11" lengthAdjust="spacingAndGlyphs" textLength="70" x="467" y="767.6479">move(): void</text><path d="M84,680.5 L84,720.7656 A0,0 0 0 0 84,720.7656 L309,720.7656 A0,0 0 0 0 309,720.7656 L309,702.2449 L446.6523,695.4907 L309,694.2449 L309,690.5 L299,680.5 L84,680.5 A0,0 0 0 0 84,680.5 " fill="#FBFB77" filter="url(#fglj2josfrciv)" style="stroke: #A80036; stroke-width: 1.0;"/><path d="M299,680.5 L299,690.5 L309,690.5 L299,680.5 " fill="#FBFB77" style="stroke: #A80036; stroke-width: 1.0;"/><text fill="#000000" font-family="sans-serif" font-size="13" lengthAdjust="spacingAndGlyphs" textLength="200" x="90" y="697.5669">consumeExperiencePoints() will</text><text fill="#000000" font-family="sans-serif" font-size="13" lengthAdjust="spacingAndGlyphs" textLength="82" x="90" y="712.6997">call levelUp()</text><!--class Enemy--><rect fill="#FEFECE" filter="url(#fglj2josfrciv)" height="124.8281" id="Enemy" style="stroke: #A80036; stroke-width: 1.5;" width="202" x="1296.5" y="470"/><ellipse cx="1372.25" cy="486" fill="#A9DCDF" rx="11" ry="11" style="stroke: #A80036; stroke-width: 1.0;"/><path d="M1372.3594,481.3438 L1371.2031,486.4219 L1373.5313,486.4219 L1372.3594,481.3438 Z M1370.875,479.1094 L1373.8594,479.1094 L1377.2188,491.5 L1374.7656,491.5 L1374,488.4375 L1370.7188,488.4375 L1369.9688,491.5 L1367.5313,491.5 L1370.875,479.1094 Z "/><text fill="#000000" font-family="sans-serif" font-size="12" font-style="italic" lengthAdjust="spacingAndGlyphs" textLength="42" x="1392.75" y="490.1543">Enemy</text><line style="stroke: #A80036; stroke-width: 1.5;" x1="1297.5" x2="1497.5" y1="502" y2="502"/><rect fill="none" height="6" style="stroke: #C82930; stroke-width: 1.0;" width="6" x="1304.5" y="510.9023"/><text fill="#000000" font-family="sans-serif" font-size="11" lengthAdjust="spacingAndGlyphs" textLength="67" x="1316.5" y="516.2104">bawl: string</text><rect fill="none" height="6" style="stroke: #C82930; stroke-width: 1.0;" width="6" x="1304.5" y="523.707"/><text fill="#000000" font-family="sans-serif" font-size="11" lengthAdjust="spacingAndGlyphs" textLength="176" x="1316.5" y="529.0151">droppableExperiencePoints: int</text><line style="stroke: #A80036; stroke-width: 1.5;" x1="1297.5" x2="1497.5" y1="535.6094" y2="535.6094"/><ellipse cx="1307.5" cy="547.5117" fill="#84BE84" rx="3" ry="3" style="stroke: #038048; stroke-width: 1.0;"/><text fill="#000000" font-family="sans-serif" font-size="11" lengthAdjust="spacingAndGlyphs" textLength="135" x="1316.5" y="549.8198">dropExperiencePoints();</text><ellipse cx="1307.5" cy="560.3164" fill="#84BE84" rx="3" ry="3" style="stroke: #038048; stroke-width: 1.0;"/><text fill="#000000" font-family="sans-serif" font-size="11" lengthAdjust="spacingAndGlyphs" textLength="147" x="1316.5" y="562.6245">setBawl(string bawl): void</text><ellipse cx="1307.5" cy="573.1211" fill="#84BE84" rx="3" ry="3" style="stroke: #038048; stroke-width: 1.0;"/><text fill="#000000" font-family="sans-serif" font-size="11" lengthAdjust="spacingAndGlyphs" textLength="94" x="1316.5" y="575.4292">getBawl(): string</text><ellipse cx="1307.5" cy="585.9258" fill="#84BE84" rx="3" ry="3" style="stroke: #038048; stroke-width: 1.0;"/><text fill="#000000" font-family="sans-serif" font-size="11" lengthAdjust="spacingAndGlyphs" textLength="131" x="1316.5" y="588.2339">getASCIIImage(): string</text><!--class EnemyFactory--><rect fill="#FEFECE" filter="url(#fglj2josfrciv)" height="66.7422" id="EnemyFactory" style="stroke: #A80036; stroke-width: 1.5;" width="160" x="1317.5" y="319"/><ellipse cx="1350.95" cy="337.9688" fill="#ADD1B2" rx="11" ry="11" style="stroke: #A80036; stroke-width: 1.0;"/><path d="M1353.9188,343.6094 Q1353.3406,343.9063 1352.7,344.0469 Q1352.0594,344.2031 1351.3563,344.2031 Q1348.8563,344.2031 1347.5281,342.5625 Q1346.2156,340.9063 1346.2156,337.7813 Q1346.2156,334.6563 1347.5281,333 Q1348.8563,331.3438 1351.3563,331.3438 Q1352.0594,331.3438 1352.7,331.5 Q1353.3563,331.6563 1353.9188,331.9531 L1353.9188,334.6719 Q1353.2938,334.0938 1352.7,333.8281 Q1352.1063,333.5469 1351.4813,333.5469 Q1350.1375,333.5469 1349.45,334.625 Q1348.7625,335.6875 1348.7625,337.7813 Q1348.7625,339.875 1349.45,340.9531 Q1350.1375,342.0156 1351.4813,342.0156 Q1352.1063,342.0156 1352.7,341.75 Q1353.2938,341.4688 1353.9188,340.8906 L1353.9188,343.6094 Z "/><text fill="#000000" font-family="sans-serif" font-size="12" font-style="italic" lengthAdjust="spacingAndGlyphs" textLength="58" x="1383.55" y="335.1387">«factory»</text><text fill="#000000" font-family="sans-serif" font-size="12" lengthAdjust="spacingAndGlyphs" textLength="87" x="1369.05" y="349.1074">EnemyFactory</text><line style="stroke: #A80036; stroke-width: 1.5;" x1="1318.5" x2="1476.5" y1="356.9375" y2="356.9375"/><line style="stroke: #A80036; stroke-width: 1.5;" x1="1318.5" x2="1476.5" y1="364.9375" y2="364.9375"/><ellipse cx="1328.5" cy="376.8398" fill="#84BE84" rx="3" ry="3" style="stroke: #038048; stroke-width: 1.0;"/><text fill="#000000" font-family="sans-serif" font-size="11" lengthAdjust="spacingAndGlyphs" textLength="134" x="1337.5" y="379.1479">getNewEnemy(): Enemy</text><!--class Carpa--><rect fill="#FEFECE" filter="url(#fglj2josfrciv)" height="48" id="Carpa" style="stroke: #A80036; stroke-width: 1.5;" width="69" x="1709" y="466.5"/><ellipse cx="1724" cy="482.5" fill="#ADD1B2" rx="11" ry="11" style="stroke: #A80036; stroke-width: 1.0;"/><path d="M1726.9688,488.1406 Q1726.3906,488.4375 1725.75,488.5781 Q1725.1094,488.7344 1724.4063,488.7344 Q1721.9063,488.7344 1720.5781,487.0938 Q1719.2656,485.4375 1719.2656,482.3125 Q1719.2656,479.1875 1720.5781,477.5313 Q1721.9063,475.875 1724.4063,475.875 Q1725.1094,475.875 1725.75,476.0313 Q1726.4063,476.1875 1726.9688,476.4844 L1726.9688,479.2031 Q1726.3438,478.625 1725.75,478.3594 Q1725.1563,478.0781 1724.5313,478.0781 Q1723.1875,478.0781 1722.5,479.1563 Q1721.8125,480.2188 1721.8125,482.3125 Q1721.8125,484.4063 1722.5,485.4844 Q1723.1875,486.5469 1724.5313,486.5469 Q1725.1563,486.5469 1725.75,486.2813 Q1726.3438,486 1726.9688,485.4219 L1726.9688,488.1406 Z "/><text fill="#000000" font-family="sans-serif" font-size="12" lengthAdjust="spacingAndGlyphs" textLength="37" x="1738" y="486.6543">Carpa</text><line style="stroke: #A80036; stroke-width: 1.5;" x1="1710" x2="1777" y1="498.5" y2="498.5"/><line style="stroke: #A80036; stroke-width: 1.5;" x1="1710" x2="1777" y1="506.5" y2="506.5"/><path d="M1913.5,478 L1913.5,486.5 L1778.0829,490.5 L1913.5,494.5 L1913.5,503.1328 A0,0 0 0 0 1913.5,503.1328 L2063.5,503.1328 A0,0 0 0 0 2063.5,503.1328 L2063.5,488 L2053.5,478 L1913.5,478 A0,0 0 0 0 1913.5,478 " fill="#FBFB77" filter="url(#fglj2josfrciv)" style="stroke: #A80036; stroke-width: 1.0;"/><path d="M2053.5,478 L2053.5,488 L2063.5,488 L2053.5,478 " fill="#FBFB77" style="stroke: #A80036; stroke-width: 1.0;"/><text fill="#000000" font-family="sans-serif" font-size="13" lengthAdjust="spacingAndGlyphs" textLength="129" x="1919.5" y="495.0669">very simple life form</text><!--class AngryKoneko--><rect fill="#FEFECE" filter="url(#fglj2josfrciv)" height="48" id="AngryKoneko" style="stroke: #A80036; stroke-width: 1.5;" width="113" x="1687" y="549.5"/><ellipse cx="1702" cy="565.5" fill="#ADD1B2" rx="11" ry="11" style="stroke: #A80036; stroke-width: 1.0;"/><path d="M1704.9688,571.1406 Q1704.3906,571.4375 1703.75,571.5781 Q1703.1094,571.7344 1702.4063,571.7344 Q1699.9063,571.7344 1698.5781,570.0938 Q1697.2656,568.4375 1697.2656,565.3125 Q1697.2656,562.1875 1698.5781,560.5313 Q1699.9063,558.875 1702.4063,558.875 Q1703.1094,558.875 1703.75,559.0313 Q1704.4063,559.1875 1704.9688,559.4844 L1704.9688,562.2031 Q1704.3438,561.625 1703.75,561.3594 Q1703.1563,561.0781 1702.5313,561.0781 Q1701.1875,561.0781 1700.5,562.1563 Q1699.8125,563.2188 1699.8125,565.3125 Q1699.8125,567.4063 1700.5,568.4844 Q1701.1875,569.5469 1702.5313,569.5469 Q1703.1563,569.5469 1703.75,569.2813 Q1704.3438,569 1704.9688,568.4219 L1704.9688,571.1406 Z "/><text fill="#000000" font-family="sans-serif" font-size="12" lengthAdjust="spacingAndGlyphs" textLength="81" x="1716" y="569.6543">AngryKoneko</text><line style="stroke: #A80036; stroke-width: 1.5;" x1="1688" x2="1799" y1="581.5" y2="581.5"/><line style="stroke: #A80036; stroke-width: 1.5;" x1="1688" x2="1799" y1="589.5" y2="589.5"/><path d="M1860,553.5 L1860,569.5 L1800.0156,573.5 L1860,577.5 L1860,593.7656 A0,0 0 0 0 1860,593.7656 L2117,593.7656 A0,0 0 0 0 2117,593.7656 L2117,563.5 L2107,553.5 L1860,553.5 A0,0 0 0 0 1860,553.5 " fill="#FBFB77" filter="url(#fglj2josfrciv)" style="stroke: #A80036; stroke-width: 1.0;"/><path d="M2107,553.5 L2107,563.5 L2117,563.5 L2107,553.5 " fill="#FBFB77" style="stroke: #A80036; stroke-width: 1.0;"/><text fill="#000000" font-family="sans-serif" font-size="13" lengthAdjust="spacingAndGlyphs" textLength="144" x="1866" y="570.5669">AngryKoneko can drop</text><text fill="#000000" font-family="sans-serif" font-size="13" lengthAdjust="spacingAndGlyphs" textLength="236" x="1866" y="585.6997">reward (items, attack / health bonus)</text><!--class GameController--><rect fill="#FEFECE" filter="url(#fglj2josfrciv)" height="124.8281" id="GameController" style="stroke: #A80036; stroke-width: 1.5;" width="160" x="516" y="79"/><ellipse cx="544.95" cy="95" fill="#ADD1B2" rx="11" ry="11" style="stroke: #A80036; stroke-width: 1.0;"/><path d="M547.9188,100.6406 Q547.3406,100.9375 546.7,101.0781 Q546.0594,101.2344 545.3563,101.2344 Q542.8563,101.2344 541.5281,99.5938 Q540.2156,97.9375 540.2156,94.8125 Q540.2156,91.6875 541.5281,90.0313 Q542.8563,88.375 545.3563,88.375 Q546.0594,88.375 546.7,88.5313 Q547.3563,88.6875 547.9188,88.9844 L547.9188,91.7031 Q547.2938,91.125 546.7,90.8594 Q546.1063,90.5781 545.4813,90.5781 Q544.1375,90.5781 543.45,91.6563 Q542.7625,92.7188 542.7625,94.8125 Q542.7625,96.9063 543.45,97.9844 Q544.1375,99.0469 545.4813,99.0469 Q546.1063,99.0469 546.7,98.7813 Q547.2938,98.5 547.9188,97.9219 L547.9188,100.6406 Z "/><text fill="#000000" font-family="sans-serif" font-size="12" lengthAdjust="spacingAndGlyphs" textLength="97" x="562.05" y="99.1543">GameController</text><line style="stroke: #A80036; stroke-width: 1.5;" x1="517" x2="675" y1="111" y2="111"/><rect fill="none" height="6" style="stroke: #C82930; stroke-width: 1.0;" width="6" x="524" y="119.9023"/><text fill="#000000" font-family="sans-serif" font-size="11" lengthAdjust="spacingAndGlyphs" textLength="54" x="536" y="125.2104">score: int</text><rect fill="none" height="6" style="stroke: #C82930; stroke-width: 1.0;" width="6" x="524" y="132.707"/><text fill="#000000" font-family="sans-serif" font-size="11" lengthAdjust="spacingAndGlyphs" textLength="51" x="536" y="138.0151">state: int</text><line style="stroke: #A80036; stroke-width: 1.5;" x1="517" x2="675" y1="144.6094" y2="144.6094"/><ellipse cx="527" cy="156.5117" fill="#84BE84" rx="3" ry="3" style="stroke: #038048; stroke-width: 1.0;"/><text fill="#000000" font-family="sans-serif" font-size="11" lengthAdjust="spacingAndGlyphs" textLength="66" x="536" y="158.8198">start(): void</text><ellipse cx="527" cy="169.3164" fill="#84BE84" rx="3" ry="3" style="stroke: #038048; stroke-width: 1.0;"/><text fill="#000000" font-family="sans-serif" font-size="11" lengthAdjust="spacingAndGlyphs" textLength="134" x="536" y="171.6245">setState(int state): void</text><ellipse cx="527" cy="182.1211" fill="#84BE84" rx="3" ry="3" style="stroke: #038048; stroke-width: 1.0;"/><text fill="#000000" font-family="sans-serif" font-size="11" lengthAdjust="spacingAndGlyphs" textLength="81" x="536" y="184.4292">getScore(): int</text><ellipse cx="527" cy="194.9258" fill="#84BE84" rx="3" ry="3" style="stroke: #038048; stroke-width: 1.0;"/><text fill="#000000" font-family="sans-serif" font-size="11" lengthAdjust="spacingAndGlyphs" textLength="58" x="536" y="197.2339">run(): void</text><path d="M6,91 L6,191.7969 A0,0 0 0 0 6,191.7969 L387,191.7969 A0,0 0 0 0 387,191.7969 L387,145.5 L515.7998,141.5 L387,137.5 L387,101 L377,91 L6,91 A0,0 0 0 0 6,91 " fill="#FBFB77" filter="url(#fglj2josfrciv)" style="stroke: #A80036; stroke-width: 1.0;"/><path d="M377,91 L377,101 L387,101 L377,91 " fill="#FBFB77" style="stroke: #A80036; stroke-width: 1.0;"/><text fill="#000000" font-family="sans-serif" font-size="13" lengthAdjust="spacingAndGlyphs" textLength="316" x="12" y="108.0669">GameController sets the appropriate component.</text><text fill="#000000" font-family="sans-serif" font-size="13" lengthAdjust="spacingAndGlyphs" textLength="312" x="12" y="123.1997">State will be filled with constants (e.g. duel-state,</text><text fill="#000000" font-family="sans-serif" font-size="13" lengthAdjust="spacingAndGlyphs" textLength="199" x="12" y="138.3325">world-map-state, reward-state)</text><text fill="#000000" font-family="sans-serif" font-size="13" lengthAdjust="spacingAndGlyphs" textLength="356" x="12" y="153.4653">From main.cpp the GameController's start() method will</text><text fill="#000000" font-family="sans-serif" font-size="13" lengthAdjust="spacingAndGlyphs" textLength="61" x="12" y="168.5981">be called.</text><text fill="#000000" font-family="sans-serif" font-size="13" lengthAdjust="spacingAndGlyphs" textLength="99" x="12" y="183.731">run: Game loop</text><!--link Component to MainMenuComponent--><path d="M716.2787,238.6695 C726.2903,233.4166 736.0076,227.6932 745,221.5 C777.1109,199.3847 771.6395,177.681 805,157.5 C825.5511,145.0679 849.8751,136.22 872.9499,129.9612 " fill="none" id="Component-MainMenuComponent" style="stroke: #A80036; stroke-width: 1.0;"/><polygon fill="none" points="719.0722,245.0959,698.0329,247.6162,712.9084,232.5258,719.0722,245.0959" style="stroke: #A80036; stroke-width: 1.0;"/><!--link Component to DuelComponent--><path d="M718.1867,262.8417 C746.0036,258.3663 775.8861,253.5586 804.7664,248.9121 " fill="none" id="Component-DuelComponent" style="stroke: #A80036; stroke-width: 1.0;"/><polygon fill="none" points="719.1986,269.7688,698.3405,266.0347,716.9747,255.9466,719.1986,269.7688" style="stroke: #A80036; stroke-width: 1.0;"/><!--link Component to WorldMapComponent--><path d="M697.3371,334.6673 C731.3767,351.854 769.6702,370.8254 805,387.5 C820.3448,394.7423 836.6637,402.2051 852.6926,409.4021 " fill="none" id="Component-WorldMapComponent" style="stroke: #A80036; stroke-width: 1.0;"/><polygon fill="none" points="694.1142,340.8816,679.438,325.5973,700.4423,328.3934,694.1142,340.8816" style="stroke: #A80036; stroke-width: 1.0;"/><!--link Component to RewardComponent--><path d="M715.8538,243.9638 C726.4737,237.5406 736.4277,230.1016 745,221.5 C795.1028,171.2254 751.8717,120.5661 805,73.5 C826.0078,54.8893 854.6357,44.6173 881.3513,38.9867 " fill="none" id="Component-RewardComponent" style="stroke: #A80036; stroke-width: 1.0;"/><polygon fill="none" points="719.0327,250.2025,698.1073,253.5388,712.3849,237.8814,719.0327,250.2025" style="stroke: #A80036; stroke-width: 1.0;"/><!--link Component to PlayerCreationComponent--><path d="M718.2784,301.8339 C764.1175,309.0817 815.5546,317.2146 858.8692,324.0632 " fill="none" id="Component-PlayerCreationComponent" style="stroke: #A80036; stroke-width: 1.0;"/><polygon fill="none" points="717.0019,308.7191,698.3405,298.6814,719.1884,294.8909,717.0019,308.7191" style="stroke: #A80036; stroke-width: 1.0;"/><!--link LifeForm to Player--><path d="M337.1147,605.0169 C372.5918,617.0054 410.8043,629.9182 446.6923,642.0456 " fill="none" id="LifeForm-Player" style="stroke: #A80036; stroke-width: 1.0;"/><polygon fill="none" points="334.4252,611.497,317.7187,598.4625,338.9072,598.2338,334.4252,611.497" style="stroke: #A80036; stroke-width: 1.0;"/><!--link LifeForm to Enemy--><path d="M337.7941,554.5588 C583.2,549.4505 1082.4181,539.0587 1296.4139,534.6042 " fill="none" id="LifeForm-Enemy" style="stroke: #A80036; stroke-width: 1.0;"/><polygon fill="none" points="337.8523,561.559,317.7109,554.9769,337.5609,547.5621,337.8523,561.559" style="stroke: #A80036; stroke-width: 1.0;"/><!--link EnemyFactory to Enemy--><path d="M1397.5,386.4423 C1397.5,414.2688 1397.5,442.0953 1397.5,469.9219 " fill="none" id="EnemyFactory-Enemy" style="stroke: #A80036; stroke-width: 1.0;"/><!--link Enemy to Carpa--><path d="M1518.5133,517.8105 C1585.8164,509.6408 1664.692,500.0663 1708.9048,494.6994 " fill="none" id="Enemy-Carpa" style="stroke: #A80036; stroke-width: 1.0;"/><polygon fill="none" points="1519.2055,524.7778,1498.5076,520.239,1517.5184,510.8798,1519.2055,524.7778" style="stroke: #A80036; stroke-width: 1.0;"/><!--link Enemy to AngryKoneko--><path d="M1518.6999,546.8618 C1575.759,553.6232 1641.0998,561.3659 1686.5756,566.7546 " fill="none" id="Enemy-AngryKoneko" style="stroke: #A80036; stroke-width: 1.0;"/><polygon fill="none" points="1517.5449,553.774,1498.5076,544.4691,1519.1924,539.8713,1517.5449,553.774" style="stroke: #A80036; stroke-width: 1.0;"/><!--link GameController to Player--><path d="M515.5622,163.8227 C478.4646,178.6501 438.062,202.3303 417,239 C397.963,272.1441 408.4118,287.7551 417,325 C441.1182,429.5943 499.2207,538.8785 542.7313,610.8002 " fill="none" id="GameController-Player" style="stroke: #A80036; stroke-width: 1.0;"/><!--link GameController to Component--><path d="M596,204.1299 C596,215.8411 596,227.5524 596,239.2637 " fill="none" id="GameController-Component" style="stroke: #A80036; stroke-width: 1.0;"/><!--link DuelComponent to EnemyFactory--><path d="M1108.2672,268.5503 C1178.5279,288.9435 1259.1337,312.3393 1317.3746,329.2436 " fill="none" id="DuelComponent-EnemyFactory" style="stroke: #A80036; stroke-width: 1.0;"/><!--
@startuml Class-Diagram-Koneko-Duel

left to right direction

abstract class Component {
    + start(): void
    + printMenu(): void
    + handleKeyPress(char key): void 
}
note left
    Inside every Component class is a start() method, 
    which contains a loop.
end note

class MainMenuComponent {

}

class DuelComponent {
    - enemies: vector
    - init(Player player): void
    + generateEnemy(int number = 1): Enemy
    + startNewDuel(Player player, Enemy enemy): void
}

note right
    DuelComponent starts duel between player and generated enemies.
    update() will be called after every attack,
    it will refresh the health stats of the enemy and player object.
    When a duel is finished, it will return to GameController.
end note

class PlayerCreationComponent {
    + createNewPlayer(): Player
}

class WorldMapComponent {
    - mapLevel: int
    + initMap(Player p): void
    + setMapLevel(int mapLevel): void
    + getMapLevel(): int
}

class RewardComponent {

}

note right
This component will be shown after a duel.
Player wil be informed about gained experience points or level-ups.
end note

abstract class LifeForm {
    - healthPoints: int
    - attackPoints: int
    - level: int
    + takeDamage(int damage)
    + getHealthPoints(): int
    + setHealthPoints(int healthPoints): void
    + getAttackPoints(): int
    + setAttackPoints(int attackPoints): void
    + setLevel(int level): void
    + getLevel(): int
}

class Player {
    - name: string
    - experiencePoints: int
    - levelUp()
    + getName(): string
    + setName(string name): void
    + resetExperiencePoints(): void
    + consumeExperiencePoints(int experiencePoints)
    + getExperiencePoints(): int
    + move(): void
}

note left 
    consumeExperiencePoints() will 
    call levelUp()
end note

abstract class Enemy {
    - bawl: string
    - droppableExperiencePoints: int
    + dropExperiencePoints();
    + setBawl(string bawl): void
    + getBawl(): string
    + getASCIIImage(): string
}

class EnemyFactory <<factory>> {
    + getNewEnemy(): Enemy
}

class Carpa {
}

note right
    very simple life form
end note

class AngryKoneko {
}

note right
    AngryKoneko can drop 
    reward (items, attack / health bonus)
end note

class GameController {
    - score: int
    - state: int
    + start(): void
    + setState(int state): void
    + getScore(): int
    + run(): void
}

note left
    GameController sets the appropriate component.
    State will be filled with constants (e.g. duel-state,
    world-map-state, reward-state)
    From main.cpp the GameController's start() method will 
    be called.
    run: Game loop
end note

Component <|- - MainMenuComponent
Component <|- - DuelComponent
Component <|- - WorldMapComponent
Component <|- - RewardComponent
Component <|- - PlayerCreationComponent

LifeForm <|- - Player
LifeForm <|- - Enemy

EnemyFactory - Enemy
Enemy <|- - Carpa
Enemy <|- - AngryKoneko

GameController - Player
GameController - Component

DuelComponent - - EnemyFactory

@enduml

PlantUML version 1.2018.13(Mon Nov 26 18:11:51 CET 2018)
(GPL source distribution)
Java Runtime: OpenJDK Runtime Environment
JVM: OpenJDK 64-Bit Server VM
Java Version: 11.0.3+7-Ubuntu-1ubuntu219.04.1
Operating System: Linux
OS Version: 5.0.0-15-generic
Default Encoding: UTF-8
Language: en
Country: US
--></g></svg>